<svg width="46" height="50" viewBox="0 0 46 50" fill="none" xmlns="http://www.w3.org/2000/svg">
<path fill-rule="evenodd" clip-rule="evenodd" d="M18.1815 10.0095C18.0462 9.20189 17.9443 8.40344 17.8785 7.6049C17.7792 6.40708 17.8406 5.20011 17.8054 4.0023C17.7901 3.49414 17.7296 2.1693 17.754 1.97874C17.975 0.318132 19.3071 0.0640196 19.6967 0.0186478C19.8852 -0.00857519 21.8208 -0.226262 22.2383 1.93343C22.7506 4.57407 22.9148 7.23281 22.7335 9.83715C23.1565 12.0513 23.8799 14.2563 24.835 16.2527C28.6357 24.1927 35.8781 24.9641 43.7249 24.8915C44.9317 24.8733 45.9337 25.8261 45.9969 27.033C46.06 28.249 45.1617 29.3016 43.9603 29.4105C39.5743 29.837 31.7924 33.376 29.102 37.0602C28.5392 37.8315 28.2118 39.6918 27.7789 41.5157C27.1746 44.0475 26.4558 46.552 25.6503 47.6046C25.5295 47.7679 24.0602 49.4376 23.6219 49.6826C22.5684 50.2634 21.7252 49.9276 21.2462 49.6191C20.7673 49.3105 20.2253 48.7025 20.0088 47.6953C19.7824 46.6427 19.9736 44.4829 19.9384 44.0201C19.8104 42.3414 19.4767 39.0474 18.7957 36.2162C18.4287 34.6917 18.0372 33.2852 17.3896 32.5865C14.9923 30.0003 11.1591 30.3815 7.93114 30.808C7.56045 30.8533 7.18976 30.9078 6.81997 30.9532C5.50587 31.3434 4.11056 31.6337 2.63591 31.8061C0.409061 32.0693 0.042904 30.0094 0.0230617 29.8733C-0.0184268 29.5738 -0.172672 28.0312 1.50581 27.4142C1.6889 27.3506 3.04 27.0512 3.56041 26.9332C4.28555 26.7698 5.0188 26.6429 5.75477 26.5249C13.3571 24.1474 17.4861 17.4686 18.1815 10.0095ZM20.7908 18.2582C23.6607 24.2291 28.0161 27.1147 33.1787 28.4214C29.9552 30.1183 27.0221 32.2417 25.4681 34.3742C24.8783 35.1818 24.3371 36.8061 23.8492 38.63C23.5849 36.9331 23.2278 35.1273 22.7561 33.5846C22.2194 31.8242 21.497 30.3634 20.6906 29.4922C19.1339 27.8135 17.1803 26.8788 15.0798 26.416C17.5943 24.1746 19.501 21.3797 20.7908 18.2582Z" fill="#F5E27B"/>
</svg>
