<svg width="267" height="10" viewBox="0 0 267 10" fill="none" xmlns="http://www.w3.org/2000/svg">
<path d="M266.659 5.60601C267.213 6.40677 267.049 6.86172 266.473 7.10909C266.185 7.23279 265.794 7.30458 265.339 7.34174C265.112 7.36035 264.868 7.37029 264.613 7.37376C264.359 7.37643 264.094 7.37202 263.822 7.36366C262.733 7.32994 261.535 7.22743 260.488 7.19795C260.226 7.19058 259.974 7.18782 259.734 7.19184C259.495 7.19537 259.27 7.20489 259.061 7.22399C258.644 7.26192 258.293 7.33621 258.037 7.46487C252.8 7.65312 247.428 7.62502 242.115 7.49052C236.797 7.35711 231.523 7.1277 226.385 6.91425C226.384 6.90859 226.384 6.90296 226.383 6.89949C226.245 7.01966 225.99 7.05087 225.667 6.88586C225.363 7.23713 224.268 6.5279 223.639 6.78704C222.759 6.38455 221.971 7.19412 220.856 6.70169C219.178 6.73136 217.471 6.73287 215.75 6.71972C214.03 6.70281 212.296 6.67073 210.561 6.63485C208.827 6.59573 207.093 6.55371 205.37 6.51948C203.647 6.48241 201.935 6.45438 200.244 6.44634C200.252 6.46081 200.261 6.47711 200.269 6.49173C198.59 6.5451 196.792 6.59547 194.933 6.63296C193.074 6.66787 191.154 6.69468 189.233 6.69899C185.391 6.70882 181.544 6.64302 178.171 6.45129C176.325 6.36478 174.503 6.87258 172.675 6.50286C172.517 6.53844 172.277 6.62936 172.104 6.50228C171.602 6.44834 171.09 6.74409 170.607 6.53767C169.409 6.75795 168.145 6.91016 166.855 7.00966C165.564 7.1088 164.247 7.15615 162.944 7.15837C162.941 7.14368 162.938 7.12725 162.935 7.11269C161.357 7.1133 159.801 7.20605 158.25 7.29464C156.699 7.38292 155.154 7.46988 153.602 7.46284C151.134 7.50421 148.721 7.73008 146.304 7.58259C146.308 7.61628 146.312 7.64656 146.316 7.67948C145.222 7.66717 144.135 7.71365 143.052 7.78123C141.968 7.84806 140.887 7.93669 139.806 8.01044C137.642 8.15902 135.474 8.24293 133.291 7.97707C133.294 7.99346 133.297 8.00806 133.3 8.02458C130.371 7.90641 127.519 7.97829 124.667 8.0205C123.242 8.04249 121.817 8.05695 120.386 8.03706C118.955 8.01738 117.517 7.96521 116.068 7.85009C112.929 7.12606 109.778 7.25134 106.634 7.04412C106.19 6.74856 103.136 7.03859 102.587 6.94575C102.588 6.96214 102.59 6.97677 102.591 6.9933C99.6935 7.00345 96.7888 6.87814 93.8835 6.76161C93.8812 6.72885 93.8788 6.69584 93.8765 6.66285C91.943 6.66086 90.0066 6.65848 88.0744 6.66472C86.1422 6.66909 84.2141 6.68243 82.2975 6.70596C80.3614 6.69192 78.4825 6.80382 76.6217 6.42143C76.2191 6.49749 75.7468 6.18739 75.4329 6.75187C73.1538 6.75817 70.9602 6.96722 68.6791 6.9617L68.6836 6.91781C65.121 6.85468 60.272 3.90153 57.9124 7.10407C54.3127 7.20949 48.221 8.77258 44.7172 8.55723C32.6748 8.55723 31.1695 8.96471 37.1907 7.33476C34.321 7.0737 21.6359 11.4096 26.0676 8.14974C3.5723 13.0396 23.6034 6.6679 22.5223 6.86737C22.1022 6.97905 21.7773 6.7782 21.4129 6.71239C20.635 6.87901 12.6258 9.02676 11.802 8.96471C11.0759 8.90463 17.5609 6.25664 16.8005 6.27628C15.5817 6.18338 0.833679 6.71239 14.1943 5.10757C13.9108 4.77118 0.177078 5.57361 0.0016959 5.10757C-0.172974 4.64159 13.2033 2.90715 13.1144 2.32171C13.0922 2.16535 13.1141 2.0202 13.1721 1.88538C13.2318 1.75055 13.3181 1.62598 13.459 1.51115C13.7302 1.28139 14.1537 1.08992 14.6839 0.929926C15.7441 0.609931 17.2311 0.415922 18.79 0.294309C21.9047 0.0514678 25.3016 0.0985317 26.0676 0.0225354C28.7879 -0.033626 31.5037 0.0529146 34.1974 0.0730388C35.8951 -0.0622693 37.6849 0.160126 39.4306 0.0838721L39.4304 0.0857048C39.8304 0.0890159 40.5499 0.0966351 40.9591 0.0986925L40.9786 0C48.9211 0.109655 56.8171 0.390365 64.7449 0.847853C65.8447 0.899225 66.9787 0.743021 68.077 0.715406C69.9849 0.710134 71.8646 1.07446 73.8086 1.02338L73.7983 0.977632C74.0679 0.776518 74.3782 0.813584 74.6609 0.897682C75.1833 1.08725 75.8072 0.790824 76.2926 1.086C76.4317 1.00345 76.613 0.993127 76.7303 1.11072C78.2965 0.874118 79.873 0.761602 81.4615 0.722607C83.05 0.684352 84.6502 0.719553 86.2613 0.778737C89.4826 0.897778 92.7501 1.11201 96.02 1.02183C95.9587 1.03466 95.9039 1.06032 95.8765 1.14628C98.5574 1.14181 101.246 1.13734 103.927 1.1329L103.928 1.03415C103.807 1.03331 102.28 1.04758 102.207 1.01367C103.784 0.910959 105.366 0.924718 106.951 0.946385C108.534 0.967023 110.119 0.995056 111.696 0.92221C111.696 0.936901 111.696 0.953361 111.696 0.967923C114.458 0.958633 117.221 0.949311 119.98 0.936387L119.973 0.98763C120.201 1.10918 120.419 1.16679 120.599 0.957476C120.603 0.966606 120.608 0.972071 120.615 0.979368L120.614 0.984865C120.894 1.17659 121.449 1.22481 121.644 0.941981C122.067 1.25474 122.787 1.23767 123.032 0.920281C123.771 0.929925 124.494 0.959951 125.216 0.93449C125.156 0.945774 125.105 0.978982 125.066 1.05601C125.373 1.05806 125.68 1.05829 125.985 1.05851C125.918 0.954615 125.835 0.940405 125.751 0.935358C126.963 1.16859 128.079 1.1991 129.307 1.21276L129.289 1.17994C133.985 0.995796 139.069 0.983579 143.882 0.876368C143.884 0.890931 143.886 0.907358 143.887 0.922082C151.042 0.962362 158.251 0.757487 165.434 0.625362C172.622 0.493172 179.779 0.433989 186.98 0.764302C188.721 0.833419 190.461 0.899482 192.205 0.959791C193.946 1.01846 195.684 1.06617 197.42 1.09905C199.152 1.12959 200.877 1.14168 202.593 1.12975C204.303 1.11429 206.003 1.07436 207.68 0.999203C209.278 0.93793 210.964 1.01245 212.634 1.06163C214.299 1.10844 215.957 1.13499 217.471 0.978822C218.814 1.24507 219.905 0.896364 221.307 1.16798C221.759 1.24024 221.848 0.831201 222.329 0.986022C222.488 0.853029 222.922 0.856597 223.277 1.09105C227.9 1.08989 232.549 1.07478 237.194 1.04215C239.521 1.02804 241.832 1.00232 244.151 0.977086C245.306 0.961141 246.46 0.945195 247.612 0.929283C248.764 0.912084 249.906 0.889548 251.054 0.869617C252.202 0.791756 253.598 1.32858 254.841 1.85635C256.078 2.38356 257.143 2.8986 257.529 2.76923C257.797 2.72185 258.061 2.66906 258.336 2.62673C258.611 2.58378 258.897 2.54993 259.215 2.54311C259.85 2.52903 260.609 2.6201 261.658 2.94154C262.453 3.30224 263.422 3.68997 264.338 4.1264C265.252 4.56286 266.114 5.04803 266.659 5.60601Z" fill="#4468AE"/>
</svg>
